<svg width="148" height="60" viewBox="0 0 148 60" fill="none" xmlns="http://www.w3.org/2000/svg">
<path d="M10.088 21.5272C10.136 21.6472 10.124 21.7432 10.052 21.8152C10.004 21.9112 9.92001 21.9592 9.80001 21.9592H3.64401C3.50001 21.9592 3.40401 21.8872 3.35601 21.7432L0.656006 13.5712V13.3552L3.32001 5.29115C3.41601 5.14716 3.52401 5.07516 3.64401 5.07516H9.80001C9.87201 5.07516 9.95601 5.12316 10.052 5.21916C10.124 5.29116 10.136 5.38716 10.088 5.50716L7.46001 13.4632L10.088 21.5272Z" fill="#440FC1"/>
<path d="M20.1807 13.4632L21.5847 20.3032H27.9927C28.2087 20.3032 28.3167 20.4112 28.3167 20.6272V26.6752C28.3167 26.8912 28.2087 26.9992 27.9927 26.9992H16.3647C16.2207 26.9992 16.1247 26.9152 16.0767 26.7472L13.3767 13.5352V13.3912L16.0407 0.323155C16.0887 0.155155 16.1967 0.0711558 16.3647 0.0711558H27.9927C28.2087 0.0711558 28.3167 0.179156 28.3167 0.395156V6.44316C28.3167 6.65916 28.2087 6.76716 27.9927 6.76716H21.5847L20.1807 13.4632Z" fill="#440FC1"/>
<path d="M50.9556 26.6752C50.9556 26.7472 50.9316 26.8312 50.8836 26.9272C50.8116 26.9992 50.7276 27.0352 50.6316 27.0352H44.5116C44.3436 27.0352 44.2356 26.9512 44.1876 26.7832L42.5316 17.4232H39.2196V26.7112C39.2196 26.9272 39.1116 27.0352 38.8956 27.0352H32.7756C32.5596 27.0352 32.4516 26.9272 32.4516 26.7112V0.359156C32.4516 0.167156 32.5596 0.0711558 32.7756 0.0711558H50.5956C50.6916 0.0711558 50.7756 0.107155 50.8476 0.179154C50.8956 0.227155 50.9196 0.311156 50.9196 0.431155L48.6156 13.5712L50.9556 26.6752ZM43.5396 6.80315H39.2196V10.7272H42.8196L43.5396 6.80315Z" fill="#440FC1"/>
<path d="M61.9924 6.80315V9.50316L67.5364 10.6192C67.7044 10.6672 67.7884 10.7752 67.7884 10.9432V16.9912C67.7884 17.0872 67.7524 17.1712 67.6804 17.2432C67.5844 17.2912 67.5124 17.3152 67.4644 17.3152H67.3924L61.9924 16.1992V20.2672H71.7844C72.0004 20.2672 72.1084 20.3632 72.1084 20.5552V26.6752C72.1084 26.8912 72.0004 26.9992 71.7844 26.9992H55.5844C55.3684 26.9992 55.2604 26.8912 55.2604 26.6752V0.359156C55.2604 0.167156 55.3684 0.0711558 55.5844 0.0711558H71.7844C72.0004 0.0711558 72.1084 0.167156 72.1084 0.359156V6.47915C72.1084 6.69515 72.0004 6.80315 71.7844 6.80315H61.9924Z" fill="#440FC1"/>
<path d="M82.5237 6.80315V9.50316L88.0677 10.6192C88.2357 10.6672 88.3197 10.7752 88.3197 10.9432V16.9912C88.3197 17.0872 88.2837 17.1712 88.2117 17.2432C88.1157 17.2912 88.0437 17.3152 87.9957 17.3152H87.9237L82.5237 16.1992V20.2672H92.3157C92.5317 20.2672 92.6397 20.3632 92.6397 20.5552V26.6752C92.6397 26.8912 92.5317 26.9992 92.3157 26.9992H76.1157C75.8997 26.9992 75.7917 26.8912 75.7917 26.6752V0.359156C75.7917 0.167156 75.8997 0.0711558 76.1157 0.0711558H92.3157C92.5317 0.0711558 92.6397 0.167156 92.6397 0.359156V6.47915C92.6397 6.69515 92.5317 6.80315 92.3157 6.80315H82.5237Z" fill="#440FC1"/>
<path d="M113.855 0.179154C113.927 0.251155 113.951 0.335155 113.927 0.431155L110.903 18.2512C110.903 18.4192 110.807 18.5032 110.615 18.5032H103.739V26.7112C103.739 26.9272 103.631 27.0352 103.415 27.0352H97.3309C97.1149 27.0352 97.0069 26.9272 97.0069 26.7112V0.359156C97.0069 0.143156 97.1149 0.0351562 97.3309 0.0351562H113.639C113.735 0.0351562 113.807 0.0831556 113.855 0.179154ZM106.979 6.83916H103.739V11.7352H106.151L106.979 6.83916Z" fill="#440FC1"/>
<path d="M134.144 0.179154C134.192 0.275155 134.204 0.371155 134.18 0.467155L129.14 18.8272V26.7112C129.14 26.9272 129.032 27.0352 128.816 27.0352H122.768C122.552 27.0352 122.444 26.9272 122.444 26.7112V18.8272L117.404 0.467155C117.356 0.347155 117.368 0.251155 117.44 0.179154C117.512 0.107155 117.596 0.0711558 117.692 0.0711558H123.632C123.776 0.0711558 123.872 0.143156 123.92 0.287155L125.792 6.44316L127.664 0.287155C127.688 0.143156 127.784 0.0711558 127.952 0.0711558H133.892C133.988 0.0711558 134.072 0.107155 134.144 0.179154Z" fill="#440FC1"/>
<path d="M147.774 13.4632C147.798 13.5352 147.798 13.6072 147.774 13.6792L145.11 21.7432C145.062 21.8872 144.966 21.9592 144.822 21.9592H138.666C138.594 21.9592 138.51 21.9112 138.414 21.8152C138.342 21.7432 138.33 21.6472 138.378 21.5272L141.006 13.5712L138.342 5.50716C138.294 5.41116 138.318 5.31516 138.414 5.21916C138.462 5.12316 138.546 5.07516 138.666 5.07516H144.822C144.966 5.07516 145.062 5.14716 145.11 5.29115L147.774 13.4632Z" fill="#440FC1"/>
<path d="M19.088 53.5263C19.136 53.6463 19.124 53.7423 19.052 53.8143C19.004 53.9103 18.92 53.9583 18.8 53.9583H12.644C12.5 53.9583 12.404 53.8863 12.356 53.7423L9.65601 45.5703V45.3543L12.32 37.2903C12.416 37.1463 12.524 37.0743 12.644 37.0743H18.8C18.872 37.0743 18.956 37.1223 19.052 37.2183C19.124 37.2903 19.136 37.3863 19.088 37.5063L16.46 45.4623L19.088 53.5263Z" fill="#440FC1"/>
<path d="M34.6527 32.1783C34.7487 32.2743 34.7727 32.3583 34.7247 32.4303L29.3607 58.7463C29.3127 58.9143 29.2047 58.9983 29.0367 58.9983H22.8807C22.7367 58.9983 22.6527 58.9623 22.6287 58.8903C22.5327 58.7943 22.5087 58.7103 22.5567 58.6383L27.9207 32.3223C27.9687 32.1543 28.0767 32.0703 28.2447 32.0703H34.4007C34.5207 32.0703 34.6047 32.1063 34.6527 32.1783Z" fill="#440FC1"/>
<path d="M44.8604 45.4623L46.2644 52.3023H52.6724C52.8884 52.3023 52.9963 52.4103 52.9963 52.6263V58.6743C52.9963 58.8903 52.8884 58.9983 52.6724 58.9983H41.0443C40.9003 58.9983 40.8043 58.9143 40.7563 58.7463L38.0563 45.5343V45.3903L40.7204 32.3223C40.7684 32.1543 40.8763 32.0703 41.0443 32.0703H52.6724C52.8884 32.0703 52.9963 32.1783 52.9963 32.3943V38.4423C52.9963 38.6583 52.8884 38.7663 52.6724 38.7663H46.2644L44.8604 45.4623Z" fill="#440FC1"/>
<path d="M74.2673 32.0703C74.4833 32.0703 74.5913 32.1783 74.5913 32.3943V58.7103C74.5913 58.9263 74.4833 59.0343 74.2673 59.0343H58.1033C57.8873 59.0343 57.7793 58.9263 57.7793 58.7103V32.3943C57.7793 32.1783 57.8873 32.0703 58.1033 32.0703H74.2673ZM67.8593 38.8383H64.4753V52.3383H67.8593V38.8383Z" fill="#440FC1"/>
<path d="M95.5725 58.6743C95.5725 58.8903 95.4645 58.9983 95.2485 58.9983L79.4085 59.0343C79.1925 59.0343 79.0845 58.9263 79.0845 58.7103V32.3943C79.0845 32.1783 79.1925 32.0703 79.4085 32.0703H92.7645C92.9325 32.0703 93.0405 32.1543 93.0885 32.3223L95.5725 45.9303V58.6743ZM85.7805 52.3023H89.3085V46.0383L87.9765 38.7663H85.7805V52.3023Z" fill="#440FC1"/>
<path d="M105.621 38.8023V41.5023L111.165 42.6183C111.333 42.6663 111.417 42.7743 111.417 42.9423V48.9903C111.417 49.0863 111.381 49.1703 111.309 49.2423C111.213 49.2903 111.141 49.3143 111.093 49.3143H111.021L105.621 48.1983V52.2663H115.413C115.629 52.2663 115.737 52.3623 115.737 52.5543V58.6743C115.737 58.8903 115.629 58.9983 115.413 58.9983H99.2133C98.9973 58.9983 98.8893 58.8903 98.8893 58.6743V32.3583C98.8893 32.1663 98.9973 32.0703 99.2133 32.0703H115.413C115.629 32.0703 115.737 32.1663 115.737 32.3583V38.4783C115.737 38.6943 115.629 38.8023 115.413 38.8023H105.621Z" fill="#440FC1"/>
<path d="M129.177 45.4623C129.201 45.5343 129.201 45.6063 129.177 45.6783L126.513 53.7423C126.465 53.8863 126.369 53.9583 126.225 53.9583H120.069C119.997 53.9583 119.913 53.9103 119.817 53.8143C119.745 53.7423 119.733 53.6463 119.781 53.5263L122.409 45.5703L119.745 37.5063C119.697 37.4103 119.721 37.3143 119.817 37.2183C119.865 37.1223 119.949 37.0743 120.069 37.0743H126.225C126.369 37.0743 126.465 37.1463 126.513 37.2903L129.177 45.4623Z" fill="#440FC1"/>
</svg>
