<svg width="25" height="35" viewBox="0 0 25 35" fill="none" xmlns="http://www.w3.org/2000/svg">
<path d="M17.1492 0.861695C17.4305 1.21059 17.5738 1.68148 17.8594 2.62209L24.1194 23.1848C21.7682 21.9645 19.2445 21.1101 16.6355 20.6512L12.5603 6.87853C12.5282 6.76844 12.4611 6.67175 12.3693 6.60301C12.2775 6.53426 12.1659 6.49717 12.0512 6.4973C11.9365 6.49743 11.8249 6.53478 11.7332 6.60373C11.6416 6.67268 11.5748 6.76952 11.5428 6.87969L7.51649 20.6443C4.89613 21.1013 2.36123 21.957 0 23.1817L6.28942 2.61775C6.57733 1.6783 6.7207 1.20828 7.00167 0.859383C7.25002 0.55227 7.5727 0.313674 7.9391 0.166211C8.35333 -5.16884e-08 8.8456 0 9.82812 0H14.321C15.3044 0 15.7967 0 16.2124 0.167367C16.579 0.314803 16.9014 0.553872 17.1492 0.861695Z" fill="#2E2E39"/>
<path d="M17.898 24.1629C16.866 25.046 14.8061 25.6478 12.4338 25.6478C9.52294 25.6478 7.08181 24.741 6.4346 23.5215C6.20335 24.2204 6.15132 25.02 6.15132 25.5316C6.15132 25.5316 5.99898 28.0392 7.74347 29.7837C7.74347 29.5684 7.78588 29.3552 7.86828 29.1563C7.95068 28.9574 8.07146 28.7767 8.22371 28.6245C8.37596 28.4723 8.5567 28.3515 8.75562 28.2692C8.95454 28.1868 9.16774 28.1444 9.38304 28.1445C10.9353 28.1445 10.9344 29.4981 10.9333 30.598V30.6951C10.9333 32.3639 11.9528 33.7936 13.4027 34.3966C13.1793 33.9375 13.0634 33.4335 13.064 32.923C13.064 31.3308 13.9976 30.7391 15.0839 30.0502C15.9479 29.5028 16.9076 28.894 17.5681 27.6736C17.9246 27.016 18.1109 26.2796 18.1101 25.5316C18.1105 25.0672 18.039 24.6054 17.898 24.1629Z" fill="#2E2E39"/>
</svg>
