<svg width="46" height="37" viewBox="0 0 46 37" fill="none" xmlns="http://www.w3.org/2000/svg">
<path d="M45.8651 20.6039C45.5953 18.7264 44.9375 16.946 43.9095 15.3125C43.013 13.8869 41.8626 12.619 40.4896 11.5414L40.4932 11.538L26.0726 0.588422C26.0622 0.579373 26.0514 0.570848 26.0401 0.562881C25.5607 0.199789 24.9115 0 24.213 0C23.5135 0 22.839 0.200234 22.3147 0.564038C21.7509 0.953382 21.4286 1.46999 21.4061 2.01987C21.3855 2.53292 21.633 3.02656 22.105 3.41137C23.0331 4.13533 23.9591 4.87504 24.8864 5.61564C25.7863 6.3347 26.7136 7.07521 27.6364 7.79614L9.97348 7.78431C7.95353 7.78431 6.57813 8.72203 6.2952 10.292C6.17088 10.9796 6.39026 11.7357 6.88068 12.3148C7.40099 12.9286 8.15644 13.2673 9.00775 13.2673L10.3543 13.2681C12.2144 13.2681 14.0828 13.2636 15.9486 13.2592L17.7279 13.2551L1.69728 24.9797L1.63364 25.0257C0.738219 25.7042 0.152014 26.6555 0.0255368 27.6354C-0.0703337 28.3777 0.104844 29.0561 0.532345 29.5979C1.04185 30.2438 1.83735 30.5991 2.77247 30.5991C3.69112 30.5991 4.62849 30.255 5.4131 29.6284L14.0699 22.6246C14.0329 22.9666 13.988 23.4683 13.9931 23.8325C14.0028 24.4091 14.1901 25.566 14.4865 26.5052C15.099 28.4355 16.1307 30.2016 17.5528 31.7525C19.0326 33.3661 20.8347 34.6456 22.909 35.5545C25.1018 36.5133 27.4592 37 29.9157 37H29.9385C32.4029 36.9941 34.7677 36.4997 36.9676 35.5299C39.0453 34.6103 40.8467 33.3257 42.3208 31.7123C43.7411 30.1534 44.7714 28.3844 45.3827 26.4558C45.6852 25.501 45.8789 24.5159 45.9603 23.5187C46.0358 22.5549 46.0033 21.5742 45.8651 20.6039ZM30.0953 29.8556C24.6815 29.8556 20.2912 25.9731 20.2912 21.1834C20.2912 16.3944 24.6815 12.5119 30.0953 12.5119C35.5092 12.5119 39.899 16.3944 39.899 21.1834C39.8992 25.9731 35.5092 29.8556 30.0953 29.8556ZM35.7491 20.4214C35.829 21.8509 35.2514 23.1782 34.2372 24.1608C33.2055 25.1618 31.7333 25.7905 30.087 25.7905C28.4415 25.7905 26.969 25.1618 25.937 24.1608C24.9232 23.1782 24.3468 21.8511 24.4262 20.4226C24.5039 19.034 25.1891 17.8083 26.2211 16.9404C27.2358 16.0871 28.5985 15.5665 30.0869 15.5665C31.5756 15.5665 32.9378 16.0873 33.9527 16.9404C34.9852 17.8083 35.6706 19.0331 35.7491 20.4214Z" fill="#2E2E39"/>
</svg>
