<svg width="24" height="35" viewBox="0 0 24 35" fill="none" xmlns="http://www.w3.org/2000/svg">
<path fill-rule="evenodd" clip-rule="evenodd" d="M6.47059 13.0952C4.06652 13.0952 2.11765 15.0673 2.11765 17.5C2.11765 19.9327 4.06652 21.9048 6.47059 21.9048H10.9412V17.5V13.0952H6.47059ZM17.4118 10.9524L17.5294 10.9524C19.9335 10.9524 21.8824 8.9803 21.8824 6.54762C21.8824 4.11494 19.9335 2.14286 17.5294 2.14286H13.0588V10.9524L17.4118 10.9524ZM21.0778 12.0238C22.8379 10.8536 24 8.83796 24 6.54762C24 2.93147 21.103 0 17.5294 0H13.0588H12H10.9412H6.47059C2.89698 0 0 2.93147 0 6.54762C0 8.83796 1.16213 10.8536 2.92224 12.0238C1.16213 13.194 0 15.2097 0 17.5C0 19.7903 1.16213 21.806 2.92224 22.9762C1.16213 24.1464 0 26.162 0 28.4524C0 32.076 2.93367 35 6.49984 35C10.0985 35 13.0588 32.0494 13.0588 28.3929V24.0476V22.9762V22.3446C14.2082 23.4027 15.7355 24.0476 17.4118 24.0476H17.5294C21.103 24.0476 24 21.1161 24 17.5C24 15.2097 22.8379 13.194 21.0778 12.0238ZM17.5294 13.0952L17.4118 13.0952C15.0077 13.0952 13.0588 15.0673 13.0588 17.5C13.0588 19.9327 15.0077 21.9048 17.4118 21.9048H17.5294C19.9335 21.9048 21.8824 19.9327 21.8824 17.5C21.8824 15.0673 19.9335 13.0952 17.5294 13.0952ZM2.11765 28.4524C2.11765 26.0197 4.06652 24.0476 6.47059 24.0476H10.9412V28.3929C10.9412 30.8509 8.94383 32.8571 6.49984 32.8571C4.08834 32.8571 2.11765 30.8776 2.11765 28.4524ZM10.9412 10.9524H6.47059C4.06652 10.9524 2.11765 8.9803 2.11765 6.54762C2.11765 4.11494 4.06652 2.14286 6.47059 2.14286H10.9412V10.9524Z" fill="#2E2E39"/>
</svg>
