<svg width="37" height="37" viewBox="0 0 37 37" fill="none" xmlns="http://www.w3.org/2000/svg">
<path d="M24.2485 15.0889C26.4375 18.8805 27.9271 22.717 28.5461 25.9005C29.2919 29.7364 28.758 32.6679 27.246 33.5408C25.6703 34.4505 22.6926 33.3896 19.5703 30.6107C17.2097 28.5098 14.7867 25.3506 12.7087 21.7514C10.5782 18.0612 8.98251 14.3234 8.36378 11.1785C7.58093 7.19881 8.22194 4.15935 9.76746 3.26704C11.2671 2.40115 14.0086 3.323 16.93 5.84281C19.3983 7.972 22.0381 11.2603 24.2485 15.0889Z" stroke="#C9D1D9" stroke-width="2" stroke-miterlimit="10"/>
<path d="M18.4752 11.7591C22.8533 11.757 26.9207 12.3832 29.988 13.4374C33.6835 14.7075 35.9562 16.6346 35.957 18.3805C35.958 20.1998 33.5513 22.2494 29.5843 23.566C26.585 24.5612 22.6379 25.082 18.4819 25.0842C14.2209 25.0863 10.1857 24.6013 7.15222 23.5661C3.31355 22.2561 1.00091 20.1824 0.999981 18.3977C0.999203 16.666 3.16721 14.7517 6.80952 13.4799C9.88698 12.4052 14.0543 11.7613 18.4752 11.7591Z" stroke="#C9D1D9" stroke-width="2" stroke-miterlimit="10"/>
<path d="M12.7043 15.0973C14.8889 11.3032 17.4628 8.09196 19.908 5.96119C22.854 3.39386 25.6585 2.38725 27.1715 3.25846C28.7482 4.16625 29.322 7.27489 28.4813 11.3693C27.8459 14.465 26.3258 18.1446 24.252 21.7462C22.1258 25.4389 19.6905 28.6926 17.2786 30.8037C14.2266 33.4752 11.2751 34.4432 9.72845 33.5526C8.22767 32.6885 7.65197 29.8542 8.36914 26.0634C8.97507 22.8605 10.4984 18.9285 12.7043 15.0973Z" stroke="#C9D1D9" stroke-width="2" stroke-miterlimit="10"/>
<circle cx="18.511" cy="18.4218" r="2.75" transform="rotate(15 18.511 18.4218)" fill="#C9D1D9" stroke="#C9D1D9"/>
</svg>
