<svg width="38" height="37" viewBox="0 0 38 37" fill="none" xmlns="http://www.w3.org/2000/svg">
<path d="M24.4985 15.0889C26.6875 18.8805 28.1771 22.717 28.7961 25.9005C29.5419 29.7364 29.008 32.6679 27.496 33.5408C25.9203 34.4505 22.9426 33.3896 19.8203 30.6107C17.4597 28.5098 15.0367 25.3506 12.9587 21.7514C10.8282 18.0612 9.23251 14.3234 8.61378 11.1785C7.83093 7.19881 8.47194 4.15935 10.0175 3.26704C11.5171 2.40115 14.2586 3.323 17.18 5.84281C19.6483 7.972 22.2881 11.2603 24.4985 15.0889Z" stroke="#2E2E39" stroke-width="2.5" stroke-miterlimit="10"/>
<path d="M18.7252 11.7591C23.1033 11.757 27.1707 12.3832 30.238 13.4374C33.9335 14.7075 36.2062 16.6346 36.207 18.3805C36.208 20.1998 33.8013 22.2494 29.8343 23.566C26.835 24.5612 22.8879 25.082 18.7319 25.0842C14.4709 25.0863 10.4357 24.6013 7.40222 23.5661C3.56355 22.2561 1.25091 20.1824 1.24998 18.3977C1.2492 16.666 3.41721 14.7517 7.05952 13.4799C10.137 12.4052 14.3043 11.7613 18.7252 11.7591Z" stroke="#2E2E39" stroke-width="2.5" stroke-miterlimit="10"/>
<path d="M12.9543 15.0973C15.1389 11.3032 17.7128 8.09196 20.158 5.96119C23.104 3.39386 25.9085 2.38725 27.4215 3.25846C28.9982 4.16625 29.572 7.27489 28.7313 11.3693C28.0959 14.465 26.5758 18.1446 24.502 21.7462C22.3758 25.4389 19.9405 28.6926 17.5286 30.8037C14.4766 33.4752 11.5251 34.4432 9.97845 33.5526C8.47767 32.6885 7.90197 29.8542 8.61914 26.0634C9.22507 22.8605 10.7484 18.9285 12.9543 15.0973Z" stroke="#2E2E39" stroke-width="2.5" stroke-miterlimit="10"/>
<circle cx="18.761" cy="18.4218" r="2.75" transform="rotate(15 18.761 18.4218)" fill="#2E2E39" stroke="#2E2E39"/>
</svg>
