<svg width="48" height="48" viewBox="0 0 48 48" fill="none" xmlns="http://www.w3.org/2000/svg">
<g clip-path="url(#clip0_4103_25)">
<path d="M29.6192 20.5499C31.8083 24.3415 33.2979 28.1779 33.9169 31.3614C34.6627 35.1973 34.1288 38.1288 32.6168 39.0017C31.0411 39.9114 28.0634 38.8505 24.9411 36.0716C22.5805 33.9707 20.1575 30.8116 18.0795 27.2123C15.949 23.5222 14.3533 19.7844 13.7346 16.6395C12.9517 12.6597 13.5927 9.62029 15.1383 8.72798C16.6379 7.86209 19.3794 8.78394 22.3008 11.3037C24.7691 13.4329 27.4089 16.7213 29.6192 20.5499Z" stroke="#2E2E39" stroke-width="2" stroke-miterlimit="10"/>
<path d="M23.8465 17.2201C28.2246 17.2179 32.292 17.8442 35.3593 18.8983C39.0548 20.1685 41.3274 22.0955 41.3283 23.8414C41.3293 25.6608 38.9226 27.7103 34.9556 29.0269C31.9562 30.0222 28.0092 30.5429 23.8532 30.5451C19.5921 30.5472 15.557 30.0622 12.5235 29.027C8.68484 27.7171 6.3722 25.6433 6.37127 23.8587C6.37049 22.127 8.5385 20.2127 12.1808 18.9408C15.2583 17.8661 19.4256 17.2223 23.8465 17.2201Z" stroke="#2E2E39" stroke-width="2" stroke-miterlimit="10"/>
<path d="M18.0756 20.5582C20.2602 16.7641 22.8341 13.5529 25.2792 11.4221C28.2252 8.8548 31.0298 7.84819 32.5428 8.7194C34.1195 9.62719 34.6933 12.7358 33.8526 16.8302C33.2172 19.9259 31.697 23.6055 29.6232 27.2072C27.4971 30.8999 25.0618 34.1536 22.6499 36.2647C19.5979 38.9362 16.6463 39.9041 15.0997 39.0136C13.599 38.1495 13.0233 35.3151 13.7404 31.5243C14.3464 28.3214 15.8697 24.3895 18.0756 20.5582Z" stroke="#2E2E39" stroke-width="2" stroke-miterlimit="10"/>
<circle cx="23.8828" cy="23.8828" r="2.75" transform="rotate(15 23.8828 23.8828)" fill="#2E2E39" stroke="#2E2E39"/>
</g>
<defs>
<clipPath id="clip0_4103_25">
<rect width="39" height="39" fill="white" transform="translate(10.0939) rotate(15)"/>
</clipPath>
</defs>
</svg>
