<svg width="37" height="37" viewBox="0 0 37 37" fill="none" xmlns="http://www.w3.org/2000/svg">
<path d="M2.62939 18.443C2.62939 24.7056 6.27996 30.1177 11.5736 32.6825L4.00338 12.0039C3.12282 13.9716 2.62939 16.1492 2.62939 18.443Z" fill="#2E2E39"/>
<path d="M29.2129 17.6459C29.2129 15.6905 28.5084 14.3364 27.9041 13.2823C27.0997 11.9791 26.3456 10.8754 26.3456 9.5721C26.3456 8.11768 27.4521 6.76381 29.0106 6.76381C29.0809 6.76381 29.1477 6.77255 29.2162 6.77646C26.3927 4.19759 22.631 2.62305 18.4994 2.62305C12.9552 2.62305 8.0774 5.45902 5.23975 9.75454C5.61208 9.76568 5.96297 9.7735 6.26102 9.7735C7.92098 9.7735 10.4905 9.5727 10.4905 9.5727C11.346 9.52242 11.4468 10.7751 10.5922 10.876C10.5922 10.876 9.73252 10.9768 8.77586 11.0268L14.555 28.1646L18.0281 17.7802L15.5555 11.0262C14.7009 10.9762 13.8913 10.8754 13.8913 10.8754C13.0361 10.8254 13.1364 9.52182 13.9916 9.5721C13.9916 9.5721 16.6124 9.7729 18.1718 9.7729C19.8314 9.7729 22.4012 9.5721 22.4012 9.5721C23.2573 9.52182 23.3579 10.7745 22.503 10.8754C22.503 10.8754 21.6415 10.9762 20.6866 11.0262L26.4217 28.0342L28.0047 22.7606C28.6908 20.5722 29.2129 19.0004 29.2129 17.6459Z" fill="#2E2E39"/>
<path d="M18.7781 19.8281L14.0166 33.6224C15.4383 34.039 16.9418 34.2669 18.4997 34.2669C20.3478 34.2669 22.1201 33.9484 23.7698 33.3701C23.7272 33.3023 23.6885 33.2304 23.6568 33.1521L18.7781 19.8281Z" fill="#2E2E39"/>
<path d="M32.4249 10.8535C32.4932 11.3575 32.5318 11.8985 32.5318 12.4804C32.5318 14.086 32.2311 15.8908 31.3251 18.1476L26.4775 32.1206C31.1956 29.3777 34.369 24.2817 34.369 18.4447C34.3693 15.6939 33.6645 13.1072 32.4249 10.8535Z" fill="#2E2E39"/>
<path d="M18.4995 0C8.29916 0 0 8.27341 0 18.4429C0 28.6136 8.29916 36.8867 18.4995 36.8867C28.6996 36.8867 37 28.6136 37 18.4429C36.9997 8.27341 28.6996 0 18.4995 0ZM18.4995 36.0413C8.76692 36.0413 0.848246 28.1466 0.848246 18.4429C0.848246 8.73975 8.76662 0.845675 18.4995 0.845675C28.2319 0.845675 36.1499 8.73975 36.1499 18.4429C36.1499 28.1466 28.2319 36.0413 18.4995 36.0413Z" fill="#2E2E39"/>
</svg>
