<svg width="132" height="57" viewBox="0 0 132 57" fill="none" xmlns="http://www.w3.org/2000/svg">
<path d="M8.40786 19.1584C8.45065 19.2653 8.43995 19.3509 8.37577 19.4151C8.33298 19.5007 8.2581 19.5435 8.15113 19.5435H2.66356C2.5352 19.5435 2.44962 19.4793 2.40683 19.3509L0 12.0662V11.8737L2.37474 4.6853C2.46032 4.55693 2.55659 4.49275 2.66356 4.49275H8.15113C8.21532 4.49275 8.2902 4.53554 8.37577 4.62112C8.43995 4.6853 8.45065 4.77087 8.40786 4.87784L6.06521 11.97L8.40786 19.1584Z" fill="#FF4971"/>
<path d="M17.4046 11.97L18.6562 18.0673H24.3684C24.561 18.0673 24.6572 18.1636 24.6572 18.3561V23.7474C24.6572 23.9399 24.561 24.0362 24.3684 24.0362H14.003C13.8746 24.0362 13.7891 23.9613 13.7463 23.8116L11.3394 12.0342V11.9058L13.7142 0.256727C13.757 0.10697 13.8532 0.0320907 14.003 0.0320907H24.3684C24.561 0.0320907 24.6572 0.128364 24.6572 0.320911V5.71221C24.6572 5.90476 24.561 6.00103 24.3684 6.00103H18.6562L17.4046 11.97Z" fill="#C9D1D9"/>
<path d="M44.838 23.7474C44.838 23.8116 44.8166 23.8865 44.7738 23.972C44.7096 24.0362 44.6348 24.0683 44.5492 24.0683H39.0937C38.9439 24.0683 38.8477 23.9934 38.8049 23.8437L37.3287 15.5H34.3763V23.7795C34.3763 23.972 34.28 24.0683 34.0875 24.0683H28.632C28.4395 24.0683 28.3432 23.972 28.3432 23.7795V0.28882C28.3432 0.117667 28.4395 0.0320907 28.632 0.0320907H44.5171C44.6027 0.0320907 44.6776 0.0641813 44.7417 0.128363C44.7845 0.171152 44.8059 0.246031 44.8059 0.353001L42.7521 12.0662L44.838 23.7474ZM38.2272 6.03312H34.3763V9.53105H37.5854L38.2272 6.03312Z" fill="#C9D1D9"/>
<path d="M54.6764 6.03312V8.43995L59.6185 9.43478C59.7682 9.47757 59.8431 9.57384 59.8431 9.7236V15.1149C59.8431 15.2005 59.811 15.2754 59.7468 15.3395C59.6612 15.3823 59.5971 15.4037 59.5543 15.4037H59.4901L54.6764 14.4089V18.0352H63.4052C63.5977 18.0352 63.694 18.1208 63.694 18.2919V23.7474C63.694 23.9399 63.5977 24.0362 63.4052 24.0362H48.9642C48.7717 24.0362 48.6754 23.9399 48.6754 23.7474V0.28882C48.6754 0.117667 48.7717 0.0320907 48.9642 0.0320907H63.4052C63.5977 0.0320907 63.694 0.117667 63.694 0.28882V5.7443C63.694 5.93685 63.5977 6.03312 63.4052 6.03312H54.6764Z" fill="#C9D1D9"/>
<path d="M72.9784 6.03312V8.43995L77.9204 9.43478C78.0702 9.47757 78.145 9.57384 78.145 9.7236V15.1149C78.145 15.2005 78.1129 15.2754 78.0488 15.3395C77.9632 15.3823 77.899 15.4037 77.8562 15.4037H77.792L72.9784 14.4089V18.0352H81.7071C81.8997 18.0352 81.996 18.1208 81.996 18.2919V23.7474C81.996 23.9399 81.8997 24.0362 81.7071 24.0362H67.2662C67.0736 24.0362 66.9773 23.9399 66.9773 23.7474V0.28882C66.9773 0.117667 67.0736 0.0320907 67.2662 0.0320907H81.7071C81.8997 0.0320907 81.996 0.117667 81.996 0.28882V5.7443C81.996 5.93685 81.8997 6.03312 81.7071 6.03312H72.9784Z" fill="#C9D1D9"/>
<path d="M100.908 0.128363C100.972 0.192545 100.993 0.267425 100.972 0.353001L98.2762 16.2381C98.2762 16.3878 98.1906 16.4627 98.0194 16.4627H91.89V23.7795C91.89 23.972 91.7938 24.0683 91.6012 24.0683H86.1778C85.9853 24.0683 85.889 23.972 85.889 23.7795V0.28882C85.889 0.0962733 85.9853 0 86.1778 0H100.715C100.801 0 100.865 0.0427876 100.908 0.128363ZM94.7782 6.06521H91.89V10.4296H94.0401L94.7782 6.06521Z" fill="#C9D1D9"/>
<path d="M118.994 0.128363C119.037 0.213939 119.047 0.299515 119.026 0.385092L114.533 16.7515V23.7795C114.533 23.972 114.437 24.0683 114.244 24.0683H108.853C108.66 24.0683 108.564 23.972 108.564 23.7795V16.7515L104.071 0.385092C104.029 0.278122 104.039 0.192545 104.103 0.128363C104.168 0.0641813 104.243 0.0320907 104.328 0.0320907H109.623C109.751 0.0320907 109.837 0.0962726 109.88 0.224637L111.549 5.71221L113.217 0.224637C113.239 0.0962726 113.324 0.0320907 113.474 0.0320907H118.769C118.855 0.0320907 118.93 0.0641813 118.994 0.128363Z" fill="#C9D1D9"/>
<path d="M131.144 11.97C131.165 12.0342 131.165 12.0983 131.144 12.1625L128.769 19.3509C128.726 19.4793 128.641 19.5435 128.512 19.5435H123.025C122.961 19.5435 122.886 19.5007 122.8 19.4151C122.736 19.3509 122.725 19.2653 122.768 19.1584L125.111 12.0662L122.736 4.87784C122.693 4.79227 122.715 4.70669 122.8 4.62112C122.843 4.53554 122.918 4.49275 123.025 4.49275H128.512C128.641 4.49275 128.726 4.55693 128.769 4.6853L131.144 11.97Z" fill="#FF4971"/>
<path d="M20.442 51.2493C20.4848 51.3563 20.4741 51.4419 20.41 51.5061C20.3672 51.5916 20.2923 51.6344 20.1853 51.6344H14.6977C14.5694 51.6344 14.4838 51.5702 14.441 51.4419L12.0342 44.1572V43.9647L14.4089 36.7763C14.4945 36.6479 14.5908 36.5837 14.6977 36.5837H20.1853C20.2495 36.5837 20.3244 36.6265 20.41 36.7121C20.4741 36.7763 20.4848 36.8618 20.442 36.9688L18.0994 44.0609L20.442 51.2493Z" fill="#FF4971"/>
<path d="M34.3167 32.2193C34.4022 32.3049 34.4236 32.3798 34.3809 32.444L29.5993 55.9025C29.5565 56.0523 29.4602 56.1272 29.3105 56.1272H23.8229C23.6945 56.1272 23.6196 56.0951 23.5983 56.0309C23.5127 55.9453 23.4913 55.8704 23.5341 55.8063L28.3156 32.3477C28.3584 32.1979 28.4547 32.123 28.6045 32.123H34.092C34.199 32.123 34.2739 32.1551 34.3167 32.2193Z" fill="#FF4971"/>
<path d="M43.416 44.0609L44.6675 50.1582H50.3798C50.5723 50.1582 50.6686 50.2545 50.6686 50.4471V55.8384C50.6686 56.0309 50.5723 56.1272 50.3798 56.1272H40.0143C39.886 56.1272 39.8004 56.0523 39.7576 55.9025L37.3508 44.1251V43.9967L39.7255 32.3477C39.7683 32.1979 39.8646 32.123 40.0143 32.123H50.3798C50.5723 32.123 50.6686 32.2193 50.6686 32.4119V37.8032C50.6686 37.9957 50.5723 38.092 50.3798 38.092H44.6675L43.416 44.0609Z" fill="#C9D1D9"/>
<path d="M69.6299 32.123C69.8224 32.123 69.9187 32.2193 69.9187 32.4119V55.8704C69.9187 56.063 69.8224 56.1593 69.6299 56.1593H62.4254H55.221C55.0285 56.1593 54.9322 56.063 54.9322 55.8704V32.4119C54.9322 32.2193 55.0285 32.123 55.221 32.123H69.6299ZM63.9177 38.1562H60.9011V50.1903H63.9177V38.1562Z" fill="#C9D1D9"/>
<path d="M88.6218 55.8384C88.6218 56.0309 88.5255 56.1272 88.333 56.1272L74.2129 56.1593C74.0204 56.1593 73.9241 56.063 73.9241 55.8704V32.4119C73.9241 32.2193 74.0204 32.123 74.2129 32.123H86.1187C86.2685 32.123 86.3647 32.1979 86.4075 32.3477L88.6218 44.4781V55.8384ZM79.893 50.1582H83.038V44.5744L81.8506 38.092H79.893V50.1582Z" fill="#C9D1D9"/>
<path d="M97.5795 38.1241V40.5309L102.521 41.5257C102.671 41.5685 102.746 41.6648 102.746 41.8146V47.2059C102.746 47.2914 102.714 47.3663 102.65 47.4305C102.564 47.4733 102.5 47.4947 102.457 47.4947H102.393L97.5795 46.4999V50.1261H106.308C106.501 50.1261 106.597 50.2117 106.597 50.3829V55.8384C106.597 56.0309 106.501 56.1272 106.308 56.1272H91.8673C91.6747 56.1272 91.5784 56.0309 91.5784 55.8384V32.3798C91.5784 32.2086 91.6747 32.123 91.8673 32.123H106.308C106.501 32.123 106.597 32.2086 106.597 32.3798V37.8353C106.597 38.0278 106.501 38.1241 106.308 38.1241H97.5795Z" fill="#C9D1D9"/>
<path d="M118.577 44.0609C118.598 44.1251 118.598 44.1893 118.577 44.2535L116.202 51.4419C116.16 51.5702 116.074 51.6344 115.946 51.6344H110.458C110.394 51.6344 110.319 51.5916 110.233 51.5061C110.169 51.4419 110.159 51.3563 110.201 51.2493L112.544 44.1572L110.169 36.9688C110.126 36.8832 110.148 36.7976 110.233 36.7121C110.276 36.6265 110.351 36.5837 110.458 36.5837H115.946C116.074 36.5837 116.16 36.6479 116.202 36.7763L118.577 44.0609Z" fill="#FF4971"/>
</svg>
