<svg width="27" height="27" viewBox="0 0 27 27" fill="none" xmlns="http://www.w3.org/2000/svg">
<g clip-path="url(#clip0_4020_7)">
<path d="M13.5 18.5625C12.1573 18.5625 10.8697 18.0291 9.92027 17.0797C8.97087 16.1303 8.4375 14.8427 8.4375 13.5C8.4375 12.1573 8.97087 10.8697 9.92027 9.92027C10.8697 8.97087 12.1573 8.4375 13.5 8.4375C14.8427 8.4375 16.1303 8.97087 17.0797 9.92027C18.0291 10.8697 18.5625 12.1573 18.5625 13.5C18.5625 14.8427 18.0291 16.1303 17.0797 17.0797C16.1303 18.0291 14.8427 18.5625 13.5 18.5625ZM13.5 20.25C15.2902 20.25 17.0071 19.5388 18.273 18.273C19.5388 17.0071 20.25 15.2902 20.25 13.5C20.25 11.7098 19.5388 9.9929 18.273 8.72703C17.0071 7.46116 15.2902 6.75 13.5 6.75C11.7098 6.75 9.9929 7.46116 8.72703 8.72703C7.46116 9.9929 6.75 11.7098 6.75 13.5C6.75 15.2902 7.46116 17.0071 8.72703 18.273C9.9929 19.5388 11.7098 20.25 13.5 20.25ZM13.5 0C13.7238 0 13.9384 0.0888948 14.0966 0.247129C14.2549 0.405362 14.3438 0.619974 14.3438 0.84375V4.21875C14.3438 4.44253 14.2549 4.65714 14.0966 4.81537C13.9384 4.9736 13.7238 5.0625 13.5 5.0625C13.2762 5.0625 13.0616 4.9736 12.9034 4.81537C12.7451 4.65714 12.6562 4.44253 12.6562 4.21875V0.84375C12.6562 0.619974 12.7451 0.405362 12.9034 0.247129C13.0616 0.0888948 13.2762 0 13.5 0ZM13.5 21.9375C13.7238 21.9375 13.9384 22.0264 14.0966 22.1846C14.2549 22.3429 14.3438 22.5575 14.3438 22.7812V26.1562C14.3438 26.38 14.2549 26.5946 14.0966 26.7529C13.9384 26.9111 13.7238 27 13.5 27C13.2762 27 13.0616 26.9111 12.9034 26.7529C12.7451 26.5946 12.6562 26.38 12.6562 26.1562V22.7812C12.6562 22.5575 12.7451 22.3429 12.9034 22.1846C13.0616 22.0264 13.2762 21.9375 13.5 21.9375ZM27 13.5C27 13.7238 26.9111 13.9384 26.7529 14.0966C26.5946 14.2549 26.38 14.3438 26.1562 14.3438H22.7812C22.5575 14.3438 22.3429 14.2549 22.1846 14.0966C22.0264 13.9384 21.9375 13.7238 21.9375 13.5C21.9375 13.2762 22.0264 13.0616 22.1846 12.9034C22.3429 12.7451 22.5575 12.6562 22.7812 12.6562H26.1562C26.38 12.6562 26.5946 12.7451 26.7529 12.9034C26.9111 13.0616 27 13.2762 27 13.5ZM5.0625 13.5C5.0625 13.7238 4.9736 13.9384 4.81537 14.0966C4.65714 14.2549 4.44253 14.3438 4.21875 14.3438H0.84375C0.619974 14.3438 0.405362 14.2549 0.247129 14.0966C0.0888948 13.9384 0 13.7238 0 13.5C0 13.2762 0.0888948 13.0616 0.247129 12.9034C0.405362 12.7451 0.619974 12.6562 0.84375 12.6562H4.21875C4.44253 12.6562 4.65714 12.7451 4.81537 12.9034C4.9736 13.0616 5.0625 13.2762 5.0625 13.5ZM23.0462 3.95381C23.2044 4.11204 23.2932 4.32661 23.2932 4.55034C23.2932 4.77408 23.2044 4.98865 23.0462 5.14687L20.6601 7.53469C20.5816 7.61303 20.4885 7.67514 20.386 7.7175C20.2836 7.75985 20.1738 7.78161 20.0629 7.78153C19.839 7.78137 19.6244 7.69228 19.4662 7.53384C19.3878 7.4554 19.3257 7.36229 19.2833 7.25983C19.241 7.15738 19.2192 7.04758 19.2193 6.93672C19.2195 6.71281 19.3086 6.49815 19.467 6.33994L21.8531 3.95381C22.0114 3.79563 22.2259 3.70677 22.4497 3.70677C22.6734 3.70677 22.888 3.79563 23.0462 3.95381ZM7.533 19.467C7.69118 19.6252 7.78004 19.8398 7.78004 20.0635C7.78004 20.2873 7.69118 20.5018 7.533 20.6601L5.14687 23.0462C4.98774 23.1999 4.77461 23.2849 4.55338 23.283C4.33215 23.2811 4.12053 23.1923 3.96409 23.0359C3.80765 22.8795 3.71892 22.6678 3.71699 22.4466C3.71507 22.2254 3.80012 22.0123 3.95381 21.8531L6.33994 19.467C6.49816 19.3088 6.71274 19.22 6.93647 19.22C7.1602 19.22 7.37477 19.3088 7.533 19.467ZM23.0462 23.0462C22.888 23.2044 22.6734 23.2932 22.4497 23.2932C22.2259 23.2932 22.0114 23.2044 21.8531 23.0462L19.467 20.6601C19.3133 20.5009 19.2283 20.2878 19.2302 20.0666C19.2321 19.8453 19.3208 19.6337 19.4773 19.4773C19.6337 19.3208 19.8453 19.2321 20.0666 19.2302C20.2878 19.2283 20.5009 19.3133 20.6601 19.467L23.0462 21.8531C23.2044 22.0114 23.2932 22.2259 23.2932 22.4497C23.2932 22.6734 23.2044 22.888 23.0462 23.0462ZM7.533 7.53469C7.37477 7.69287 7.1602 7.78173 6.93647 7.78173C6.71274 7.78173 6.49816 7.69287 6.33994 7.53469L3.95381 5.14687C3.87323 5.06904 3.80895 4.97594 3.76473 4.873C3.72051 4.77006 3.69723 4.65934 3.69626 4.54731C3.69528 4.43527 3.71663 4.32417 3.75906 4.22048C3.80148 4.11678 3.86413 4.02258 3.94335 3.94335C4.02258 3.86413 4.11678 3.80148 4.22048 3.75906C4.32417 3.71663 4.43527 3.69528 4.54731 3.69626C4.65934 3.69723 4.77006 3.72051 4.873 3.76473C4.97594 3.80895 5.06904 3.87323 5.14687 3.95381L7.533 6.33994C7.61158 6.41831 7.67392 6.51142 7.71645 6.61393C7.75899 6.71644 7.78088 6.82633 7.78088 6.93731C7.78088 7.0483 7.75899 7.15819 7.71645 7.26069C7.67392 7.3632 7.61158 7.45631 7.533 7.53469Z" fill="#C9D1D9"/>
</g>
<defs>
<clipPath id="clip0_4020_7">
<rect width="27" height="27" fill="white"/>
</clipPath>
</defs>
</svg>
