<svg width="27" height="27" viewBox="0 0 27 27" fill="none" xmlns="http://www.w3.org/2000/svg">
<path fill-rule="evenodd" clip-rule="evenodd" d="M13.5 0C20.9531 0 27 6.14286 27 13.7143C27 19.768 23.1328 24.9109 17.7716 26.732C17.0859 26.8571 16.8401 26.4286 16.8401 26.0714C16.8401 25.6251 16.8576 24.1429 16.8576 22.3034C16.8576 21.0177 16.4357 20.196 15.9435 19.7674C18.9495 19.428 22.1136 18.2674 22.1136 12.9994C22.1136 11.4994 21.5859 10.2851 20.7248 9.32114C20.8654 8.964 21.3227 7.57086 20.5841 5.67829C19.4591 5.32114 16.875 7.08914 16.875 7.08914C15.8029 6.78571 14.6424 6.62514 13.5 6.62514C12.3576 6.62514 11.1971 6.78571 10.125 7.08914C10.125 7.08914 7.54087 5.32114 6.41587 5.67829C5.67731 7.57086 6.13462 8.964 6.27525 9.32114C5.41406 10.2851 4.88644 11.4994 4.88644 12.9994C4.88644 18.2491 8.03306 19.428 11.0391 19.7674C10.6526 20.1246 10.3005 20.7314 10.1779 21.6069C9.40444 21.964 7.43569 22.5709 6.25781 20.464C5.51925 19.1606 4.18331 19.0531 4.18331 19.0531C2.86481 19.0354 4.09556 19.8926 4.09556 19.8926C4.97419 20.3034 5.58956 21.8926 5.58956 21.8926C6.38044 24.3389 10.1424 23.5177 10.1424 23.5177C10.1424 24.6606 10.1599 25.732 10.1599 26.0714C10.1599 26.4286 9.9135 26.8571 9.22838 26.732C3.86719 24.9103 0 19.768 0 13.7143C0 6.14286 6.04688 0 13.5 0ZM5.11538 19.6966C5.15081 19.6251 5.09794 19.536 4.99219 19.4823C4.88644 19.4463 4.79869 19.4646 4.76381 19.5183C4.72838 19.5897 4.78125 19.6789 4.887 19.7326C4.97475 19.7863 5.0805 19.7686 5.11538 19.6966ZM5.66044 20.3034C5.73075 20.2497 5.71331 20.1251 5.625 20.0177C5.53725 19.9286 5.41406 19.8926 5.34375 19.964C5.27344 20.0177 5.29088 20.1423 5.37919 20.2497C5.46694 20.3389 5.59013 20.3749 5.66044 20.3034ZM6.1875 21.1069C6.27525 21.0354 6.27525 20.8926 6.1875 20.7674C6.11719 20.6423 5.97656 20.5891 5.88881 20.66C5.80106 20.7137 5.80106 20.8566 5.88881 20.9817C5.97656 21.1069 6.11719 21.16 6.1875 21.1069ZM6.92606 21.8571C6.99638 21.7857 6.9615 21.6251 6.85575 21.5177C6.73256 21.3926 6.5745 21.3749 6.50419 21.464C6.41644 21.5354 6.45131 21.696 6.5745 21.8034C6.69769 21.9286 6.85575 21.9463 6.92606 21.8571ZM7.92788 22.3034C7.96331 22.196 7.85756 22.0714 7.6995 22.0177C7.55888 21.9817 7.40081 22.0354 7.36538 22.1429C7.32994 22.2503 7.43569 22.3749 7.59375 22.4109C7.73438 22.4646 7.89244 22.4109 7.92788 22.3034ZM9.03487 22.3926C9.03487 22.2674 8.89425 22.1783 8.73619 22.196C8.57813 22.196 8.45494 22.2851 8.45494 22.3926C8.45494 22.5177 8.57812 22.6069 8.75362 22.5891C8.91169 22.5891 9.03487 22.5 9.03487 22.3926ZM10.0547 22.2143C10.0373 22.1069 9.89662 22.036 9.738 22.0537C9.57994 22.0897 9.47419 22.1966 9.49162 22.3217C9.50906 22.4291 9.64969 22.5 9.80831 22.4646C9.96694 22.4291 10.0721 22.3217 10.0547 22.2143Z" fill="#C9D1D9"/>
</svg>
