<svg width="488" height="384" viewBox="0 0 488 384" fill="none" xmlns="http://www.w3.org/2000/svg">
<path fill-rule="evenodd" clip-rule="evenodd" d="M181.534 100.133C181.534 100.133 184.779 97.3793 187.133 96.2264C187.97 95.8166 191.558 93.9185 195.027 94.8798C198.208 95.7623 274.182 125.184 276.646 126.203C281.381 128.16 296.516 135.718 296.526 152.289C296.536 168.859 296.583 361.924 296.361 366.716C296.14 371.509 294.851 375.361 290.745 377.629C286.64 379.898 284.292 381.2 284.265 381.174C284.238 381.149 284.085 374.222 284.085 374.222L286.792 349.975L284.848 151.418L269.956 143.526L193.059 106.722L181.534 100.133Z" fill="#1E0377" stroke="#2D5DF6" stroke-width="1.00239" stroke-miterlimit="1.5" stroke-linecap="round" stroke-linejoin="round"/>
<path fill-rule="evenodd" clip-rule="evenodd" d="M176.171 327.592V111.508C176.171 111.508 175.899 97.204 188.766 98.8185C192.693 99.3117 266.874 128.404 270.617 129.967C274.361 131.531 290.321 140.195 290.326 156.179C290.33 172.163 290.649 365.907 290.353 370.296C290.056 374.685 287.028 384.223 277.367 382.345C267.705 380.467 199.067 352.21 194.102 350.608C189.136 349.005 176.665 340.797 176.171 327.592Z" fill="#1E0377" stroke="#2D5DF6" stroke-width="1.00239" stroke-miterlimit="1.5" stroke-linecap="round" stroke-linejoin="round"/>
<path fill-rule="evenodd" clip-rule="evenodd" d="M182.638 316.438V126.238L283.18 164.812V355.301L182.638 316.438Z" fill="#2D5DF6"/>
<path d="M237.423 360.361C240.914 358.343 241.223 352.568 238.114 347.463C235.004 342.357 229.653 339.854 226.162 341.873C222.671 343.891 222.362 349.666 225.471 354.772C228.581 359.877 233.931 362.38 237.423 360.361Z" fill="#2D5DF6"/>
<path d="M223.334 128.232L241.719 135.392" stroke="#2D5DF6" stroke-width="3.00165" stroke-miterlimit="1.5" stroke-linecap="round" stroke-linejoin="round"/>
<path d="M212.647 125.503C213.426 126.616 214.72 127.078 215.537 126.535C216.354 125.992 216.386 124.65 215.607 123.537C214.828 122.424 213.534 121.962 212.717 122.504C211.9 123.047 211.868 124.39 212.647 125.503Z" fill="#2D5DF6"/>
<path d="M231.313 124.454C231.905 125.3 232.888 125.651 233.51 125.239C234.131 124.826 234.154 123.806 233.563 122.96C232.971 122.114 231.987 121.762 231.366 122.175C230.745 122.588 230.721 123.608 231.313 124.454Z" fill="#2D5DF6"/>
<path fill-rule="evenodd" clip-rule="evenodd" d="M228.019 208.771L230.926 206.918L249.387 213.986L235.714 232.624L250.799 238.348L247.835 240.142L228.611 236.755L228.479 210.195L228.019 208.771Z" fill="#1E0377"/>
<path fill-rule="evenodd" clip-rule="evenodd" d="M212.133 271.586L214.954 269.772L250.63 238.408L245.423 237.857L214.876 267.839L212.133 271.586Z" fill="#1E0377"/>
<path fill-rule="evenodd" clip-rule="evenodd" d="M228.008 208.717L211.655 238.56L224.729 243.686L211.965 271.723L247.908 240.064L232.705 234.578L246.553 215.907L228.008 208.717Z" fill="#67DEE9"/>
<path fill-rule="evenodd" clip-rule="evenodd" d="M4.18604 171.673C4.18604 171.673 8.19995 166.375 11.4232 166.806C14.6465 167.231 18.9965 164.658 31.2581 186.133C43.5203 207.608 32.902 206.242 32.902 206.242L18.5937 188.513L4.18604 171.673Z" fill="#2D5DF6" stroke="#1E0377" stroke-width="1.00239" stroke-miterlimit="1.5" stroke-linecap="round" stroke-linejoin="round"/>
<path fill-rule="evenodd" clip-rule="evenodd" d="M23.7446 135.977C23.7446 135.977 26.7774 130.149 32.5638 132.098C38.351 134.047 47.7431 146.777 47.8418 165.845C47.8418 165.845 58.2035 165.46 64.5051 173.503C64.5051 173.503 70.9196 171.931 76.6816 176.062C82.4443 180.186 85.707 186.716 86.4126 189.216C86.4126 189.216 97.9706 190.515 99.1641 200.129C100.358 209.743 100.095 223.639 97.4263 231.158C94.7569 238.683 88.8996 241.01 85.9601 242.449C85.9601 242.449 84.1937 245.114 84.159 246.798C84.1243 248.489 84.3937 259.819 84.3937 259.819L80.635 261.928L75.1438 248.243L77.7887 237.987L88.5737 203.272L52.577 183.62L34.9631 164.877L34.2207 152.771L23.7446 135.977Z" fill="#2D5DF6" stroke="#1E0377" stroke-width="1.49807" stroke-miterlimit="1.5" stroke-linecap="round" stroke-linejoin="round"/>
<path fill-rule="evenodd" clip-rule="evenodd" d="M35.9356 245.452C35.9356 245.452 36.1452 236.163 32.017 230.561C27.8887 224.959 16.6995 206.825 14.2731 201.017C11.8473 195.203 -2.53993 175.658 4.9633 171.348C12.4658 167.045 20.5719 173.761 28.8379 192.737C28.8379 192.737 27.7703 177.322 25.8093 169.571C23.8476 161.821 13.4838 135.34 26.9708 134.956C40.4585 134.578 44.1737 158.148 44.203 168.166C44.203 168.166 55.4296 167.834 60.9126 176.645C60.9126 176.645 73.4708 170.228 82.9725 191.576C82.9725 191.576 93.6119 192.332 95.4947 202.039C97.3775 211.745 97.0216 229.215 91.6012 236.528C86.1815 243.848 80.1092 245.174 80.2589 248.615C80.4093 252.056 80.7516 261.888 80.7516 261.888L70.9512 258.023C70.9512 258.023 69.1677 248.827 65.1565 247.156C61.1453 245.479 60.605 254.058 56.4809 253.733C52.3567 253.408 35.9356 245.452 35.9356 245.452Z" fill="#2D5DF6" stroke="#1E0377" stroke-width="1.49807" stroke-miterlimit="1.5" stroke-linecap="round" stroke-linejoin="round"/>
<path d="M44.2109 168.178V185.582" stroke="#1E0377" stroke-width="1.49807" stroke-miterlimit="1.5" stroke-linecap="round" stroke-linejoin="round"/>
<path d="M60.9985 176.652V193.247" stroke="#1E0377" stroke-width="1.49807" stroke-miterlimit="1.5" stroke-linecap="round" stroke-linejoin="round"/>
<path d="M82.7241 191.08V202.291" stroke="#1E0377" stroke-width="1.49807" stroke-miterlimit="1.5" stroke-linecap="round" stroke-linejoin="round"/>
<path d="M48.4727 204.863V228.208" stroke="#1E0377" stroke-width="1.49807" stroke-miterlimit="1.5" stroke-linecap="round" stroke-linejoin="round"/>
<path d="M61.0742 209.191V233.232" stroke="#1E0377" stroke-width="1.49807" stroke-miterlimit="1.5" stroke-linecap="round" stroke-linejoin="round"/>
<path d="M73.2856 214.482V238.145" stroke="#1E0377" stroke-width="1.49807" stroke-miterlimit="1.5" stroke-linecap="round" stroke-linejoin="round"/>
<path fill-rule="evenodd" clip-rule="evenodd" d="M71.7871 4.24246C71.7871 4.24246 73.96 2.84614 75.2663 2.16515C76.847 1.34179 79.3325 1.14962 81.328 1.82762C83.3236 2.50563 154.402 30.2914 156.163 31.0386C158.549 32.0516 165.661 37.7922 165.669 44.9591C165.675 52.1259 165.857 85.5109 165.73 88.1841C165.603 90.8573 164.018 93.7395 159.908 95.5465L155.62 90.5039L140.674 41.8871L112.49 28.9149L73.8511 10.1852L71.7871 4.24246Z" fill="#AB276C" stroke="#EB446F" stroke-width="1.00073" stroke-miterlimit="1.5" stroke-linecap="round" stroke-linejoin="round"/>
<path fill-rule="evenodd" clip-rule="evenodd" d="M68.6011 54.1284V10.1657C68.6011 10.1657 69.2034 1.55871 77.8789 3.67734C80.042 4.20551 148.589 30.918 153.253 32.8843C157.917 34.8506 162.715 42.3624 162.75 46.8028C162.785 51.2427 162.777 87.8669 162.707 90.0383C162.637 92.2097 159.495 98.9006 154.018 96.8099C148.54 94.7196 136.839 89.9083 135.32 89.3155C133.801 88.7226 132.636 89.4165 132.003 89.7889C131.369 90.1607 119.349 96.2976 118.016 96.9891C116.684 97.681 114.826 97.4057 113.472 95.7226C112.117 94.0396 98.4116 76.3458 97.5186 75.394C96.6255 74.4422 95.1255 73.909 94.3541 73.6178C93.5821 73.3261 79.503 68.0539 77.3552 67.0668C74.0441 65.5455 68.9143 60.2987 68.6011 54.1284Z" fill="#D4327A" stroke="#EB446F" stroke-width="1.00073" stroke-miterlimit="1.5" stroke-linecap="round" stroke-linejoin="round"/>
<path fill-rule="evenodd" clip-rule="evenodd" d="M115.679 67.2186C115.679 67.2186 103.81 53.4773 101.599 50.5159C98.6615 46.5823 96.4769 40.757 99.6735 37.2162C102.87 33.6753 109.464 33.8082 115.531 41.2464C115.531 41.2464 121.979 37.3043 128.756 45.2323C135.533 53.1602 132.001 60.2897 129.463 61.4984C124.309 63.953 115.679 67.2186 115.679 67.2186Z" fill="#2D5DF6"/>
<path fill-rule="evenodd" clip-rule="evenodd" d="M319.642 14.3282L323.963 11.4258L406.325 42.9697V130.752L402.306 133.274L385.644 65.0909L353.534 46.8483L319.642 14.3282Z" fill="#1E0377" stroke="#2D5DF6" stroke-width="0.997879" stroke-miterlimit="1.5" stroke-linecap="round" stroke-linejoin="round"/>
<path fill-rule="evenodd" clip-rule="evenodd" d="M319.589 102.014V14.4141L402.127 45.7508L402.209 133.379L319.589 102.014Z" fill="#1E0377" stroke="#2D5DF6" stroke-width="0.997879" stroke-miterlimit="1.5" stroke-linecap="round" stroke-linejoin="round"/>
<path d="M330.895 85.0176L390.403 107.768" stroke="#2D5DF6" stroke-width="2.99799" stroke-miterlimit="1.5" stroke-linecap="round" stroke-linejoin="round"/>
<path d="M330.895 67.1367L390.403 89.8869" stroke="#2D5DF6" stroke-width="2.99799" stroke-miterlimit="1.5" stroke-linecap="round" stroke-linejoin="round"/>
<path d="M330.895 48.6973L390.403 71.4474" stroke="#2D5DF6" stroke-width="2.99799" stroke-miterlimit="1.5" stroke-linecap="round" stroke-linejoin="round"/>
<path d="M402.152 45.6279L406.11 43.0508" stroke="#2D5DF6" stroke-width="0.997879" stroke-miterlimit="1.5" stroke-linecap="round" stroke-linejoin="round"/>
<path fill-rule="evenodd" clip-rule="evenodd" d="M412.929 282.279L417.524 279.368C417.524 279.368 423.895 275.845 430.287 282.381C436.68 288.917 437.325 298.045 433.334 301.459C432.482 302.187 427.293 304.92 427.293 304.92L423.631 289.205L412.929 282.279Z" fill="#2D5DF6" stroke="#1E0377" stroke-width="1.00239" stroke-miterlimit="1.5" stroke-linecap="round" stroke-linejoin="round"/>
<path d="M412.476 298.629C416.652 304.719 423.505 307.398 427.782 304.613C432.059 301.828 432.141 294.635 427.964 288.545C423.788 282.456 416.935 279.777 412.658 282.562C408.381 285.346 408.3 292.54 412.476 298.629Z" fill="#2D5DF6" stroke="#1E0377" stroke-width="0.992173" stroke-miterlimit="1.5" stroke-linecap="round" stroke-linejoin="round"/>
<path fill-rule="evenodd" clip-rule="evenodd" d="M395.949 256.89L403.078 257.816L434.559 269.168L445.745 275.829L450.277 272.928C421.092 233.769 395.949 256.89 395.949 256.89L403.136 252.598L395.949 256.89Z" fill="#2D5DF6"/>
<path d="M395.949 256.89L403.078 257.816L434.559 269.168L445.745 275.829L450.277 272.928C421.092 233.769 395.949 256.89 395.949 256.89ZM395.949 256.89L403.136 252.598" stroke="#1E0377" stroke-width="1.00239" stroke-miterlimit="1.5" stroke-linecap="round" stroke-linejoin="round"/>
<path fill-rule="evenodd" clip-rule="evenodd" d="M403.856 268.198L396.005 256.972C396.005 256.972 418.647 241.034 445.672 275.804L437.892 281.174C437.892 281.174 421.825 259.042 403.856 268.198Z" fill="#2D5DF6" stroke="#1E0377" stroke-width="1.00239" stroke-miterlimit="1.5" stroke-linecap="round" stroke-linejoin="round"/>
<path fill-rule="evenodd" clip-rule="evenodd" d="M379.234 231.783L388.575 226.136C388.575 226.136 425.479 205.472 468.155 261.47L463.538 264.472L445.834 252.362L409.638 232.272L384.683 232.694L379.234 231.783Z" fill="#2D5DF6" stroke="#1E0377" stroke-width="1.00239" stroke-miterlimit="1.5" stroke-linecap="round" stroke-linejoin="round"/>
<path fill-rule="evenodd" clip-rule="evenodd" d="M378.708 232.013L386.543 243.475C386.543 243.475 417.176 220.433 455.369 269.926L463.333 264.539C463.333 264.539 421.577 205.51 378.708 232.013Z" fill="#2D5DF6" stroke="#1E0377" stroke-width="1.00239" stroke-miterlimit="1.5" stroke-linecap="round" stroke-linejoin="round"/>
<path fill-rule="evenodd" clip-rule="evenodd" d="M361.279 207.354C361.279 207.354 379.473 190.924 406.981 195.357C438.996 200.515 461.976 218.84 485.489 248.951L480.339 252.226L466.672 242.542L420.023 208.371L389.773 205.96L369.54 206.797L361.279 207.354Z" fill="#2D5DF6" stroke="#1E0377" stroke-width="1.00239" stroke-miterlimit="1.5" stroke-linecap="round" stroke-linejoin="round"/>
<path fill-rule="evenodd" clip-rule="evenodd" d="M369.315 218.17C369.315 218.17 414.923 184.485 472.59 257.74L480.4 252.4C480.4 252.4 453.945 210.32 410.47 199.717C402.205 197.701 379.945 194.094 360.999 207.357L369.315 218.17Z" fill="#2D5DF6" stroke="#1E0377" stroke-width="1.00239" stroke-miterlimit="1.5" stroke-linecap="round" stroke-linejoin="round"/>
</svg>
