<svg width="22" height="22" viewBox="0 0 22 22" fill="none" xmlns="http://www.w3.org/2000/svg">
<g clip-path="url(#clip0_4020_4)">
<path d="M8.25 0.381907C8.38388 0.545169 8.46588 0.74473 8.48549 0.954953C8.50509 1.16518 8.46139 1.37646 8.36 1.56166C7.56461 3.02101 7.14944 4.65713 7.15275 6.31916C7.15275 11.848 11.66 16.325 17.215 16.325C17.941 16.3241 18.6436 16.2508 19.3229 16.105C19.5307 16.0606 19.7469 16.0781 19.9449 16.1553C20.1429 16.2325 20.3138 16.3661 20.4366 16.5395C20.5665 16.72 20.6328 16.9385 20.6251 17.1608C20.6174 17.383 20.5361 17.5964 20.394 17.7674C19.3155 19.0921 17.955 20.1594 16.4117 20.8915C14.8684 21.6237 13.1812 22.0023 11.473 21.9997C5.13425 21.9997 0 16.8929 0 10.6009C0 5.86541 2.90675 1.80366 7.0455 0.0821566C7.25159 -0.00543083 7.48059 -0.0235551 7.6979 0.0305228C7.9152 0.0846007 8.109 0.207942 8.25 0.381907Z" fill="#2E2E39"/>
<path d="M14.8419 4.32839C14.8616 4.26885 14.8996 4.21703 14.9504 4.18031C15.0013 4.14358 15.0624 4.12381 15.1251 4.12381C15.1878 4.12381 15.249 4.14358 15.2998 4.18031C15.3507 4.21703 15.3886 4.26885 15.4084 4.32839L15.9405 5.92614C16.1784 6.63839 16.7366 7.19664 17.4489 7.43452L19.0466 7.96664C19.1062 7.98636 19.158 8.02434 19.1947 8.07519C19.2314 8.12604 19.2512 8.18717 19.2512 8.24989C19.2512 8.31262 19.2314 8.37375 19.1947 8.4246C19.158 8.47545 19.1062 8.51343 19.0466 8.53314L17.4489 9.06527C17.0974 9.18192 16.778 9.37903 16.5161 9.6409C16.2542 9.90277 16.0571 10.2222 15.9405 10.5736L15.4084 12.1714C15.3886 12.2309 15.3507 12.2828 15.2998 12.3195C15.249 12.3562 15.1878 12.376 15.1251 12.376C15.0624 12.376 15.0013 12.3562 14.9504 12.3195C14.8996 12.2828 14.8616 12.2309 14.8419 12.1714L14.3097 10.5736C14.1931 10.2222 13.996 9.90277 13.7341 9.6409C13.4722 9.37903 13.1528 9.18192 12.8014 9.06527L11.2036 8.53314C11.1441 8.51343 11.0922 8.47545 11.0555 8.4246C11.0188 8.37375 10.999 8.31262 10.999 8.24989C10.999 8.18717 11.0188 8.12604 11.0555 8.07519C11.0922 8.02434 11.1441 7.98636 11.2036 7.96664L12.8014 7.43452C13.1528 7.31787 13.4722 7.12076 13.7341 6.85889C13.996 6.59702 14.1931 6.27763 14.3097 5.92614L14.8419 4.32839ZM19.0617 0.136019C19.0753 0.0968679 19.1007 0.0629186 19.1345 0.0388914C19.1683 0.0148642 19.2087 0.00195312 19.2501 0.00195312C19.2915 0.00195313 19.332 0.0148642 19.3657 0.0388914C19.3995 0.0629186 19.4249 0.0968679 19.4385 0.136019L19.7932 1.20027C19.9514 1.67602 20.324 2.04864 20.7997 2.20677L21.864 2.56152C21.9031 2.57509 21.9371 2.60053 21.9611 2.63429C21.9851 2.66805 21.998 2.70846 21.998 2.74989C21.998 2.79133 21.9851 2.83174 21.9611 2.8655C21.9371 2.89926 21.9031 2.9247 21.864 2.93827L20.7997 3.29302C20.5655 3.37139 20.3526 3.5031 20.178 3.67777C20.0033 3.85243 19.8716 4.06527 19.7932 4.29952L19.4385 5.36377C19.4249 5.40292 19.3995 5.43687 19.3657 5.4609C19.332 5.48492 19.2915 5.49784 19.2501 5.49784C19.2087 5.49784 19.1683 5.48492 19.1345 5.4609C19.1007 5.43687 19.0753 5.40292 19.0617 5.36377L18.707 4.29952C18.6286 4.06527 18.4969 3.85243 18.3222 3.67777C18.1476 3.5031 17.9347 3.37139 17.7005 3.29302L16.6362 2.93827C16.5971 2.9247 16.5631 2.89926 16.5391 2.8655C16.5151 2.83174 16.5022 2.79133 16.5022 2.74989C16.5022 2.70846 16.5151 2.66805 16.5391 2.63429C16.5631 2.60053 16.5971 2.57509 16.6362 2.56152L17.7005 2.20677C18.1762 2.04864 18.5489 1.67602 18.707 1.20027L19.0617 0.136019Z" fill="#2E2E39"/>
</g>
<defs>
<clipPath id="clip0_4020_4">
<rect width="22" height="22" fill="white"/>
</clipPath>
</defs>
</svg>
