<svg width="24" height="24" viewBox="0 0 24 24" fill="none" xmlns="http://www.w3.org/2000/svg">
<g clip-path="url(#clip0_4020_4)">
<path d="M9 0.416625C9.14605 0.59473 9.23551 0.812433 9.25689 1.04177C9.27828 1.2711 9.2306 1.50159 9.12 1.70363C8.25231 3.29565 7.79939 5.0805 7.803 6.89363C7.803 12.9251 12.72 17.8091 18.78 17.8091C19.572 17.8081 20.3385 17.7281 21.0795 17.5691C21.3062 17.5206 21.5421 17.5397 21.7581 17.6239C21.974 17.7082 22.1605 17.8539 22.2945 18.0431C22.4362 18.24 22.5086 18.4784 22.5001 18.7208C22.4917 18.9633 22.403 19.196 22.248 19.3826C21.0715 20.8277 19.5873 21.992 17.9037 22.7908C16.2201 23.5895 14.3795 24.0025 12.516 23.9996C5.601 23.9996 0 18.4286 0 11.5646C0 6.39863 3.171 1.96763 7.686 0.0896254C7.91083 -0.00592454 8.16065 -0.0256965 8.39771 0.0332976C8.63477 0.0922917 8.84618 0.226846 9 0.416625Z" fill="#2E2E39"/>
<path d="M16.1912 4.72171C16.2127 4.65675 16.2541 4.60022 16.3096 4.56016C16.3651 4.52009 16.4318 4.49853 16.5002 4.49853C16.5686 4.49853 16.6353 4.52009 16.6908 4.56016C16.7463 4.60022 16.7877 4.65675 16.8092 4.72171L17.3897 6.46471C17.6492 7.24171 18.2582 7.85071 19.0352 8.11021L20.7782 8.69071C20.8432 8.71222 20.8997 8.75365 20.9398 8.80912C20.9798 8.86459 21.0014 8.93128 21.0014 8.99971C21.0014 9.06813 20.9798 9.13482 20.9398 9.19029C20.8997 9.24576 20.8432 9.2872 20.7782 9.30871L19.0352 9.88921C18.6518 10.0165 18.3033 10.2315 18.0177 10.5172C17.732 10.8028 17.517 11.1513 17.3897 11.5347L16.8092 13.2777C16.7877 13.3427 16.7463 13.3992 16.6908 13.4393C16.6353 13.4793 16.5686 13.5009 16.5002 13.5009C16.4318 13.5009 16.3651 13.4793 16.3096 13.4393C16.2541 13.3992 16.2127 13.3427 16.1912 13.2777L15.6107 11.5347C15.4834 11.1513 15.2684 10.8028 14.9827 10.5172C14.6971 10.2315 14.3486 10.0165 13.9652 9.88921L12.2222 9.30871C12.1572 9.2872 12.1007 9.24576 12.0607 9.19029C12.0206 9.13482 11.999 9.06813 11.999 8.99971C11.999 8.93128 12.0206 8.86459 12.0607 8.80912C12.1007 8.75365 12.1572 8.71222 12.2222 8.69071L13.9652 8.11021C14.3486 7.98295 14.6971 7.76792 14.9827 7.48225C15.2684 7.19657 15.4834 6.84815 15.6107 6.46471L16.1912 4.72171ZM20.7947 0.148207C20.8095 0.105497 20.8373 0.068461 20.8741 0.0422495C20.9109 0.016038 20.955 0.00195312 21.0002 0.00195312C21.0454 0.00195313 21.0895 0.016038 21.1263 0.0422495C21.1631 0.068461 21.1909 0.105497 21.2057 0.148207L21.5927 1.30921C21.7652 1.82821 22.1717 2.23471 22.6907 2.40721L23.8517 2.79421C23.8944 2.80901 23.9315 2.83676 23.9577 2.87359C23.9839 2.91042 23.998 2.9545 23.998 2.99971C23.998 3.04491 23.9839 3.08899 23.9577 3.12582C23.9315 3.16265 23.8944 3.1904 23.8517 3.20521L22.6907 3.59221C22.4352 3.67771 22.203 3.82139 22.0124 4.01193C21.8219 4.20247 21.6782 4.43467 21.5927 4.69021L21.2057 5.85121C21.1909 5.89392 21.1631 5.93095 21.1263 5.95716C21.0895 5.98338 21.0454 5.99746 21.0002 5.99746C20.955 5.99746 20.9109 5.98338 20.8741 5.95716C20.8373 5.93095 20.8095 5.89392 20.7947 5.85121L20.4077 4.69021C20.3222 4.43467 20.1785 4.20247 19.988 4.01193C19.7974 3.82139 19.5652 3.67771 19.3097 3.59221L18.1487 3.20521C18.106 3.1904 18.069 3.16265 18.0427 3.12582C18.0165 3.08899 18.0024 3.04491 18.0024 2.99971C18.0024 2.9545 18.0165 2.91042 18.0427 2.87359C18.069 2.83676 18.106 2.80901 18.1487 2.79421L19.3097 2.40721C19.8287 2.23471 20.2352 1.82821 20.4077 1.30921L20.7947 0.148207Z" fill="#2E2E39"/>
</g>
<defs>
<clipPath id="clip0_4020_4">
<rect width="24" height="24" fill="white"/>
</clipPath>
</defs>
</svg>
